PathFileType	4	(X/Y/Z)	C:/Users/opensim2020/Desktop/walking_exp_matlab/subject01_walking06_straight_02.trc	
DataRate	CameraRate	NumFrames	NumMarkers	Units	OrigDataRate	OrigDataStartFrame	OrigNumFrames	
100.00	100.00	5	43	mm	100.00	1664	171	
Frame#	Time	LFHD			RFHD			LBHD			RBHD			C7			T10			CLAV			STRN			RBAK			LSHO			LUPA			LELB			LFRM			LWRA			LWRB			LFIN			RSHO			RUPA			RELB			RFRM			RWRA			RWRB			RFIN			LASI			RASI			LPSI			RPSI			LTHI			LKNE			LTIB			LANK			LHEE			LTOE			RTHI			RKNE			RTIB			RANK			RHEE			RTOE			*39			*40			*41			*42			
		X1	Y1	Z1	X2	Y2	Z2	X3	Y3	Z3	X4	Y4	Z4	X5	Y5	Z5	X6	Y6	Z6	X7	Y7	Z7	X8	Y8	Z8	X9	Y9	Z9	X10	Y10	Z10	X11	Y11	Z11	X12	Y12	Z12	X13	Y13	Z13	X14	Y14	Z14	X15	Y15	Z15	X16	Y16	Z16	X17	Y17	Z17	X18	Y18	Z18	X19	Y19	Z19	X20	Y20	Z20	X21	Y21	Z21	X22	Y22	Z22	X23	Y23	Z23	X24	Y24	Z24	X25	Y25	Z25	X26	Y26	Z26	X27	Y27	Z27	X28	Y28	Z28	X29	Y29	Z29	X30	Y30	Z30	X31	Y31	Z31	X32	Y32	Z32	X33	Y33	Z33	X34	Y34	Z34	X35	Y35	Z35	X36	Y36	Z36	X37	Y37	Z37	X38	Y38	Z38	X39	Y39	Z39	X40	Y40	Z40	X41	Y41	Z41	X42	Y42	Z42	X43	Y43	Z43	

150	1.490	-1021.64594	-571.54755	1653.62012	-1129.65210	-611.91333	1657.79419	-1060.30164	-455.20627	1621.70911	-1174.09521	-495.33109	1626.57300	-1100.23108	-410.51804	1420.69531	-1111.17041	-386.35938	1124.72205	-1091.79370	-556.00482	1353.91760	-1090.01978	-603.27063	1202.55713	-1184.35986	-365.21472	1225.09961	-933.60736	-482.15518	1377.15637	-858.63281	-441.24921	1188.79517	-867.65698	-417.16226	1043.17212	-844.30524	-433.89218	930.93365	-867.99402	-485.83936	800.66754	-838.38538	-433.55399	808.47650	-840.16675	-461.22943	726.06226	-1246.81677	-500.35754	1383.97974	-1355.02197	-456.27917	1184.83691	-1364.39331	-467.67242	1059.20959	-1396.20459	-524.53265	951.27594	-1379.14221	-634.50201	861.78754	-1415.73853	-590.87750	849.84607	-1418.65125	-648.79102	787.91382	-1002.05609	-572.59595	928.16962	-1219.29077	-562.97864	919.58038	-1045.44287	-383.30511	936.58386	-1190.38110	-378.81158	938.00934	-949.15295	-599.55292	604.52771	-970.70154	-614.77386	471.37146	-962.73157	-581.12012	282.67313	-1021.88519	-570.89539	67.57587	-1078.31006	-530.14075	37.74449	-1006.69556	-717.26007	32.42368	-1286.58655	-485.57758	586.28577	-1274.38977	-467.34891	427.87833	-1277.90259	-316.24097	334.63834	-1238.34290	-166.35197	188.85829	-1184.96912	-116.52146	207.89571	-1218.28125	-195.39716	46.53810	-1108.77795	-598.39917	1692.42932	-3102.47437	1972.87561	1023.99835						 
151	1.500	-1019.56116	-581.55664	1653.85022	-1127.48474	-621.92297	1658.32361	-1057.62939	-465.12122	1622.24744	-1171.90735	-505.40152	1627.20959	-1098.31641	-420.56845	1421.35840	-1108.97595	-395.85403	1125.46423	-1090.05652	-565.95538	1354.33093	-1088.29138	-612.80945	1203.00342	-1182.38977	-374.84546	1225.99988	-931.95551	-492.42065	1377.86035	-856.17841	-453.48248	1189.51917	-864.67853	-430.54480	1043.51599	-841.10455	-449.86652	931.35400	-864.68042	-504.09018	802.01715	-834.84888	-451.82422	809.01117	-836.59131	-480.93671	727.14880	-1244.94116	-510.42374	1384.50061	-1353.62524	-465.65167	1185.78162	-1361.90369	-475.36740	1059.85388	-1393.40369	-530.30652	950.81458	-1376.57483	-638.85846	859.50848	-1413.22424	-595.17224	848.38269	-1415.74573	-651.78650	785.21735	-999.86743	-581.84735	928.60815	-1217.41870	-572.39282	920.30762	-1043.57642	-392.62299	936.86151	-1188.57080	-388.08374	937.49139	-947.49664	-604.99976	603.91083	-969.16162	-619.06250	470.80447	-962.41180	-582.69513	282.49658	-1021.94794	-570.91553	67.58302	-1078.16162	-529.85638	37.68639	-1006.61224	-717.34686	32.15065	-1284.79224	-502.59842	585.23230	-1272.54614	-488.18573	426.91116	-1277.65515	-336.18106	336.27237	-1236.93066	-182.61075	195.34361	-1183.74585	-133.11644	215.73045	-1219.03662	-208.45531	51.89927	-1106.60620	-608.55573	1693.07715	-3101.95972	1973.10022	1024.02161	-3138.32886	2013.13232	1022.18420			 
152	1.510	-1017.44196	-591.59277	1654.30750	-1125.11731	-631.93762	1659.01746	-1056.16028	-475.27908	1622.76306	-1170.38550	-515.49396	1628.07556	-1096.97791	-430.47583	1422.17029	-1106.84961	-405.28220	1126.34656	-1088.40393	-575.53314	1354.93567	-1086.63098	-622.31317	1203.41992	-1180.34509	-384.33432	1226.88403	-930.31982	-502.68652	1378.56238	-853.89160	-465.85840	1190.17151	-861.75659	-444.28143	1043.41113	-837.92731	-465.83801	931.81647	-861.10327	-522.79230	803.76978	-831.49628	-470.18723	809.63086	-832.90161	-501.10797	728.31097	-1243.23560	-520.35376	1385.01733	-1352.00000	-474.79947	1186.63403	-1359.55322	-482.98990	1060.36646	-1390.92285	-536.02258	950.31067	-1374.00671	-643.04529	857.12073	-1410.96191	-599.17700	846.72351	-1412.95068	-654.57532	782.42786	-997.93524	-591.02185	929.01501	-1215.78674	-581.68384	921.17480	-1041.77490	-401.73911	937.09161	-1186.78357	-397.12036	936.74976	-945.92181	-610.20514	603.21313	-967.61884	-623.65131	469.97650	-962.02917	-584.47662	282.12936	-1022.01959	-570.99237	67.66438	-1078.13416	-529.87158	37.80309	-1006.54517	-717.45953	32.01643	-1282.49792	-519.32538	584.62646	-1270.86499	-508.92599	426.58286	-1276.77429	-356.45447	337.70752	-1235.02283	-199.35588	201.38985	-1181.12268	-149.80338	221.60025	-1220.65601	-224.05104	58.17250	-1104.41284	-618.44080	1693.54211	-3102.51538	1972.96228	1024.04333	-3138.11768	2013.22620	1022.11877			 
153	1.520	-1015.19019	-601.76514	1654.94568	-1123.04785	-642.10541	1659.52454	-1054.31641	-485.34805	1623.36536	-1168.45789	-525.64294	1628.82544	-1095.36804	-440.30069	1423.09656	-1104.75647	-414.49469	1127.27502	-1086.92651	-585.30902	1355.44727	-1085.11902	-631.64984	1203.77698	-1178.20105	-393.70935	1227.72241	-928.84406	-512.88947	1379.25793	-851.50446	-478.17932	1190.93701	-858.74481	-458.40479	1043.59045	-834.64673	-481.83020	932.45117	-858.09528	-541.17334	805.19232	-827.73108	-488.98721	810.31653	-829.20441	-521.57141	729.83148	-1241.60596	-530.16248	1385.46521	-1350.41272	-484.07794	1187.26843	-1357.33044	-490.81601	1060.87122	-1388.88452	-541.78473	949.96466	-1371.44055	-647.08276	854.67682	-1408.55432	-603.20020	845.13983	-1409.93762	-657.22400	779.58826	-996.16632	-600.03210	929.36456	-1214.30164	-590.83966	922.05688	-1040.10913	-410.67804	937.29138	-1185.03748	-406.11929	935.91034	-944.51001	-615.31287	602.43597	-966.28094	-627.15698	469.21210	-961.70941	-586.43475	281.87836	-1022.15656	-571.25165	67.72352	-1078.23389	-530.00427	38.03040	-1006.46124	-717.65594	31.72789	-1280.42322	-535.72681	585.27905	-1269.18872	-529.52118	426.95935	-1275.39404	-376.60660	339.43677	-1232.69666	-217.11853	206.85367	-1177.89978	-167.30875	225.77419	-1222.83618	-241.53644	63.47677	-1102.34558	-628.68793	1694.06335	-3102.69214	1972.84546	1024.48938	-3138.27319	2013.16187	1022.06189			 
154	1.530	-1013.40198	-611.89709	1655.36060	-1121.18237	-652.26526	1659.97388	-1052.67041	-495.41971	1623.99097	-1166.77893	-535.81415	1629.48218	-1093.41602	-450.02106	1424.01489	-1102.69678	-423.54459	1128.10107	-1085.52612	-595.04993	1355.91162	-1083.67566	-640.89307	1204.07861	-1176.05066	-402.98889	1228.53333	-927.44116	-522.98901	1379.86194	-849.30994	-490.43875	1191.79736	-855.80249	-471.82483	1043.82458	-831.39014	-497.81018	933.14221	-854.52747	-560.04785	807.26898	-824.10913	-507.74118	811.27435	-825.31580	-542.34924	731.68878	-1240.08325	-539.85278	1385.84900	-1348.79968	-493.14722	1187.81018	-1355.29858	-498.73889	1061.35596	-1386.50525	-547.47034	949.39392	-1368.94189	-650.99213	852.19739	-1406.25842	-606.95032	843.34100	-1407.02722	-659.68073	776.69147	-994.49115	-608.82587	929.57745	-1212.92737	-600.03094	922.99280	-1038.63379	-419.38245	937.33673	-1183.74719	-414.43213	935.33722	-943.22784	-620.47186	601.62396	-965.05841	-631.02582	468.48715	-961.33014	-588.57599	281.60309	-1022.27612	-571.59113	67.81165	-1078.30066	-530.14105	38.23949	-1006.45203	-717.86407	31.51068	-1278.70801	-551.79688	586.37482	-1267.46399	-549.91583	428.03336	-1273.47156	-396.77261	341.34824	-1230.11072	-236.05266	211.29625	-1174.27551	-186.51878	229.04681	-1225.10327	-260.80273	68.04095	-1100.36658	-638.98798	1694.55994	-3102.24268	1973.08447	1023.97668	-3138.22656	2013.18066	1022.09186			 
